<svg width="50" height="50" viewBox="0 0 30 30" fill="none" xmlns="http://www.w3.org/2000/svg">
<path d="M15 1.20001V9.60001H10.8C8.48701 9.60001 6.60001 7.71301 6.60001 5.40001C6.60001 3.08701 8.48701 1.20001 10.8 1.20001H15ZM15 10.8V19.2H10.8C8.48701 19.2 6.60001 17.313 6.60001 15C6.60001 12.687 8.48701 10.8 10.8 10.8H15ZM15 20.4V24.6C15 26.913 13.113 28.8 10.8 28.8C8.48701 28.8 6.60001 26.913 6.60001 24.6C6.60001 22.287 8.48701 20.4 10.8 20.4H15ZM24.6 5.40001C24.6 7.71301 22.713 9.60001 20.4 9.60001H16.2V1.20001H20.4C22.713 1.20001 24.6 3.08701 24.6 5.40001ZM20.4 10.8C19.2861 10.8 18.2178 11.2425 17.4302 12.0302C16.6425 12.8178 16.2 13.8861 16.2 15C16.2 16.1139 16.6425 17.1822 17.4302 17.9699C18.2178 18.7575 19.2861 19.2 20.4 19.2C21.5139 19.2 22.5822 18.7575 23.3699 17.9699C24.1575 17.1822 24.6 16.1139 24.6 15C24.6 13.8861 24.1575 12.8178 23.3699 12.0302C22.5822 11.2425 21.5139 10.8 20.4 10.8Z" fill="#FFE5CF"/>
</svg>
