<?xml version="1.0" encoding="UTF-8"?>
<svg xmlns="http://www.w3.org/2000/svg" viewBox="0 0 480 480" width="50" height="50">
<g id="surface159334158">
<path style=" stroke:none;fill-rule:nonzero;fill:rgb(100%,75.686276%,2.745098%);fill-opacity:1;" d="M 388.199219 479.398438 L 91.800781 479.398438 C 72.910156 479.398438 57.601562 464.089844 57.601562 445.199219 L 57.601562 34.800781 C 57.601562 15.910156 72.910156 0.601562 91.800781 0.601562 L 308.398438 0.601562 L 422.398438 114.601562 L 422.398438 445.199219 C 422.398438 464.089844 407.089844 479.398438 388.199219 479.398438 Z M 388.199219 479.398438 "/>
<path style=" stroke:none;fill-rule:nonzero;fill:rgb(100%,92.54902%,70.19608%);fill-opacity:1;" d="M 422.398438 114.601562 L 308.398438 114.601562 L 308.398438 0.601562 Z M 422.398438 114.601562 "/>
<path style=" stroke:none;fill-rule:nonzero;fill:rgb(100%,62.7451%,0%);fill-opacity:1;" d="M 308.398438 114.601562 L 422.398438 228.601562 L 422.398438 114.601562 Z M 308.398438 114.601562 "/>
<path style=" stroke:none;fill-rule:nonzero;fill:rgb(100%,100%,100%);fill-opacity:1;" d="M 308.398438 217.199219 L 171.601562 217.199219 C 159.058594 217.199219 148.800781 227.460938 148.800781 240 L 148.800781 376.800781 C 148.800781 389.339844 159.058594 399.601562 171.601562 399.601562 L 308.398438 399.601562 C 320.941406 399.601562 331.199219 389.339844 331.199219 376.800781 L 331.199219 240 C 331.199219 227.460938 320.941406 217.199219 308.398438 217.199219 Z M 308.398438 262.800781 L 308.398438 354 L 171.601562 354 L 171.601562 262.800781 Z M 308.398438 262.800781 "/>
</g>
</svg>
